<svg xmlns="http://www.w3.org/2000/svg" width="512" height="512" viewBox="0 0 512 512">
  <defs>
    <linearGradient id="bg" x1="0" y1="0" x2="0" y2="1">
      <stop offset="0" stop-color="#1F5A44"/>
      <stop offset="1" stop-color="#0E2D21"/>
    </linearGradient>
    <linearGradient id="gold" x1="0" y1="0" x2="0" y2="1">
      <stop offset="0" stop-color="#F0DDA8"/>
      <stop offset="0.5" stop-color="#E3CD96"/>
      <stop offset="1" stop-color="#C9A45C"/>
    </linearGradient>
  </defs>
  <rect width="512" height="512" rx="112" fill="url(#bg)"/>
  <g transform="translate(161 106) scale(3.16)">
    <path d="M30 2 L34 9 L26 9 Z" fill="url(#gold)"/>
    <rect x="27.5" y="9" width="5" height="6" rx="1.5" fill="url(#gold)"/>
    <path d="M18 18 Q30 12 42 18 L38 23 L22 23 Z" fill="url(#gold)"/>
    <path d="M22 23 L38 23 L44 34 L44 62 L38 73 L22 73 L16 62 L16 34 Z" fill="url(#gold)"/>
    <path d="M26 30 L34 30 L38 38 L38 58 L34 66 L26 66 L22 58 L22 38 Z" fill="#1F5A44" opacity="0.92"/>
    <path d="M33 40 a8 8 0 1 0 0 16 a6 6 0 1 1 0 -16 Z" fill="url(#gold)"/>
    <path d="M22 73 L38 73 L34 80 L26 80 Z" fill="url(#gold)"/>
    <ellipse cx="30" cy="83" rx="6" ry="2.4" fill="url(#gold)"/>
  </g>
</svg>
